<svg xmlns="http://www.w3.org/2000/svg" width="36" height="36" viewBox="0 0 32 32" id="thermometer"><path d="M17.997 1023.862a2.757 2.757 0 0 0-2.749 2.75v14.84a4.103 4.103 0 0 0-1.245 2.91c0 2.203 1.796 4 3.998 4a4.007 4.007 0 0 0 3.999-4c0-1.082-.461-2.18-1.254-2.894V1030.88c.01-.676-1.009-.676-1 0v10.8a.5.5 0 0 0 .179.383 3 3 0 0 1 1.071 2.3c0 1.662-1.336 3-2.999 3a2.992 2.992 0 0 1-2.999-3c0-.886.394-1.726 1.072-2.296a.5.5 0 0 0 .178-.383v-15.072c0-.972.777-1.75 1.75-1.75.972 0 1.749.778 1.749 1.75v.75c-.01.676 1.01.676 1 0v-.75a2.757 2.757 0 0 0-2.75-2.75z" color="#FFFFFF" font-family="sans-serif" font-weight="400" overflow="visible" style="line-height:normal;text-indent:0;text-align:start;text-decoration-line:none;text-decoration-style:solid;text-decoration-color:#FFFFFF;text-transform:none;white-space:normal;isolation:auto;mix-blend-mode:normal;solid-color:#FFFFFF;solid-opacity:1" transform="translate(0 -1020.362)"></path><path d="M17.997 1042.612c-.96 0-1.749.79-1.749 1.75s.79 1.75 1.75 1.75 1.749-.79 1.749-1.75-.79-1.75-1.75-1.75zm0 1c.42 0 .75.33.75.75s-.33.75-.75.75-.75-.33-.75-.75.33-.75.75-.75z" color="#FFFFFF" font-family="sans-serif" font-weight="400" overflow="visible" style="line-height:normal;text-indent:0;text-align:start;text-decoration-line:none;text-decoration-style:solid;text-decoration-color:#FFFFFF;text-transform:none;white-space:normal;isolation:auto;mix-blend-mode:normal;solid-color:#FFFFFF;solid-opacity:1" transform="translate(0 -1020.362)"></path><path fill-rule="evenodd" d="M17.99 1031.362a.5.5 0 0 0-.492.508v10.984a.5.5 0 1 0 1 0v-10.984a.5.5 0 0 0-.508-.508zm-7.99 7v1h3.999v-1zm2-2v1h1.999v-1zm0-2v1h1.999v-1zm0-4v1h1.999v-1zm0-2v1h1.999v-1zm-2 4v1h3.999v-1zm0-6v1h3.999v-1z" color="#FFFFFF" font-family="sans-serif" font-weight="400" overflow="visible" style="line-height:normal;text-indent:0;text-align:start;text-decoration-line:none;text-decoration-style:solid;text-decoration-color:#FFFFFF;text-transform:none;white-space:normal;isolation:auto;mix-blend-mode:normal;solid-color:#FFFFFF;solid-opacity:1" transform="translate(0 -1020.362)"></path><path d="M19.747 8.75a.5.5 0 1 0 1 0 .5.5 0 0 0-1 0z"></path></svg>